<svg id="ImportedIcons" xmlns="http://www.w3.org/2000/svg" width="96" height="96" viewBox="0 0 96 96">
  <defs>
    <style>
      .cls-1 {
        fill: #b3b3b3;
      }
    </style>
  </defs>
  <path class="cls-1" d="M42.19,53.91l-3.248,2.4A17.464,17.464,0,0,0,26.5,50.051V46.5h2.711a1,1,0,0,0,0-2H21.789a1,1,0,0,0,0,2H24.5v3.551a17.507,17.507,0,1,0,15.629,7.872l3.251-2.4a1.00223,1.00223,0,0,0-1.19-1.613ZM25.5,82A14.5,14.5,0,1,1,40,67.5,14.5,14.5,0,0,1,25.5,82Z"/>
  <path class="cls-1" d="M26.5,68.026V56.5a1,1,0,0,0-2,0v12a1,1,0,0,0,.367.774l5.5,4.5a1.0002,1.0002,0,1,0,1.267-1.548Z"/>
  <path class="cls-1" d="M86.135,75.02l-.464-.927a21.08384,21.08384,0,0,1-2.226-9.4V58.832A12.972,12.972,0,0,0,71.237,45.7a12.826,12.826,0,0,0-13.43,12.19206q-.015.30974-.01495.61994v6.177a21.087,21.087,0,0,1-2.226,9.4l-.464.926a2.554,2.554,0,0,0,.022,2.529,3.043,3.043,0,0,0,2.7,1.292h25.59a3.043,3.043,0,0,0,2.7-1.292A2.553,2.553,0,0,0,86.135,75.02Zm-28.087.82.2-.4a24.09974,24.09974,0,0,0,2.544-10.749V58.512a9.826,9.826,0,0,1,9.82818-9.82383q.24.00006.47982.01183a9.978,9.978,0,0,1,9.349,10.135v5.857a24.1,24.1,0,0,0,2.544,10.749l.2.4Z"/>
  <path class="cls-1" d="M74.137,79.17a1.5,1.5,0,0,0-1.5,1.5,1.83,1.83,0,0,1-3.66,0,1.5,1.5,0,1,0-3,0,4.83,4.83,0,1,0,9.66.00861V80.67A1.5,1.5,0,0,0,74.137,79.17Z"/>
  <path class="cls-1" d="M41.695,32.977H65.871a10.25,10.25,0,1,0,0-20.5,1.5,1.5,0,0,0,0,3,7.25,7.25,0,0,1,0,14.5H41.534l4.114-4.132a1.50013,1.50013,0,1,0-2.126-2.117L36.93,30.349a1.5,1.5,0,0,0,0,2.121l6.621,6.592a1.5,1.5,0,1,0,2.15259-2.08958L45.667,36.936Z"/>
  <path class="cls-1" d="M31.743,33.5a1.5,1.5,0,1,0,0-3,7.25,7.25,0,1,1,0-14.5H56.08l-4.114,4.132a1.50013,1.50013,0,1,0,2.126,2.117l6.592-6.621a1.5,1.5,0,0,0,0-2.121L54.058,6.914a1.5,1.5,0,0,0-2.15269,2.08948L51.942,9.04,55.919,13H31.743a10.25,10.25,0,0,0,0,20.5Z"/>
</svg>
