<svg id="Layer_1" data-name="Layer 1" xmlns="http://www.w3.org/2000/svg" width="56" height="54" viewBox="0 0 56 54">
  <defs>
    <style>
      .cls-1 {
        fill: #300;
      }

      .cls-2 {
        fill: #ff9a00;
      }
    </style>
  </defs>
  <g id="Layer_2" data-name="Layer 2">
    <g id="Surfaces">
      <g id="Drawing_Surface" data-name="Drawing Surface">
        <g id="Outline_no_shadow" data-name="Outline no shadow">
          <rect class="cls-1" width="56" height="54" rx="9.91383"/>
        </g>
      </g>
    </g>
    <g>
      <path class="cls-2" d="M39.428,17.83264a2.9345,2.9345,0,0,1-1.45314-.37721,2.66966,2.66966,0,0,1-.56826-.44586,3.10363,3.10363,0,0,1-.373-3.60422,2.69966,2.69966,0,0,1,.42812-.53071,2.84027,2.84027,0,0,1,1.8873-.79,3.757,3.757,0,0,1,1.04056.10457,2.54961,2.54961,0,0,1,.83879.38247,2.40664,2.40664,0,0,1,.34995.303,2.81592,2.81592,0,0,1,.73906,1.62167,3.275,3.275,0,0,1-.286,1.81587,2.87463,2.87463,0,0,1-.48986.69739A2.90715,2.90715,0,0,1,39.428,17.83264Z"/>
      <path class="cls-2" d="M36.8917,37.62827V20.05215c0-.22829.09817-.331.2945-.331h4.52016c.19633,0,.2945.10958.2945.331V37.62827c0,.24656-.09817.36755-.2945.36755H37.22273c-.22145-.00228-.331-.121-.331-.36754Z"/>
      <g id="Outlined_Mnemonics_Logos" data-name="Outlined Mnemonics Logos">
        <g id="Ai">
          <path class="cls-2" d="M27.22586,32.3H18.73572L17.00756,37.6648a.4292.4292,0,0,1-.44061.331H12.266c-.24427,0-.331-.13469-.25568-.40408l7.351-21.16942s.151-.4207.22829-.75336a7.93331,7.93331,0,0,0,.14839-1.48846.232.232,0,0,1,.25135-.25789l5.84858-.00008c.17122,0,.25623.0592.2945.18263l8.344,23.52311c.073.24656,0,.36755-.22829.36755H29.46768a.34015.34015,0,0,1-.36755-.25568Zm-7.16605-4.632h5.80544c-.14611-.48855-.31733-1.041-.51366-1.65283s-1.7099-5.431-1.89253-6.084-.34928-1.2419-.49767-1.78295h-.03653a29.6103,29.6103,0,0,1-.77162,2.94039q-.51366,1.6551-1.04786,3.38327T20.05981,27.66794Z"/>
        </g>
      </g>
    </g>
  </g>
</svg>
