<svg id="ImportedIcons" xmlns="http://www.w3.org/2000/svg" width="96" height="96" viewBox="0 0 96 96">
  <defs>
    <style>
      .cls-1 {
        fill: #b3b3b3;
      }
    </style>
  </defs>
  <path class="cls-1" d="M85.376,19.566A2.983,2.983,0,0,0,82.75,18H49.105a4.491,4.491,0,0,0-3.744,2l-5.109,7.664a1.50157,1.50157,0,0,0,2.5,1.664h0l5.109-7.664A1.5,1.5,0,0,1,49.105,21l33.632-.021-35.6,54.344A1.5,1.5,0,0,1,45.879,76l-33.617.021L31.455,46.727a1.50024,1.50024,0,0,0-2.51-1.644h0L9.752,74.377A2.986,2.986,0,0,0,12.25,79H45.879a4.487,4.487,0,0,0,3.764-2.034l35.6-54.344A2.983,2.983,0,0,0,85.376,19.566Z"/>
  <path class="cls-1" d="M51.944,60.132a1.50013,1.50013,0,1,0,2.121-2.122L18.242,22.21a.243.243,0,0,1-.00035-.34366L18.242,21.866l1.793-1.792a.244.244,0,0,1,.344,0L54.748,54.42a1.5,1.5,0,0,0,2.121-2.12L22.5,17.951a3.248,3.248,0,0,0-4.585,0l-1.793,1.792a3.244,3.244,0,0,0-.00129,4.58771l.00129.00129Z"/>
  <path class="cls-1" d="M72.237,67.774a1.49217,1.49217,0,0,0-.289-.4L65.7,61.129a1.5,1.5,0,1,0-2.15685,2.08519L63.58,63.251l6.067,6.063,2.055,4.221-4.006-1.9-5.583-5.578A1.5,1.5,0,1,0,60,68.179l5.766,5.762a1.49972,1.49972,0,0,0,.417.294l8.1,3.84a1.5,1.5,0,0,0,1.991-2.012Z"/>
</svg>
